<svg xmlns="http://www.w3.org/2000/svg">
<symbol id="mail3" viewBox="0 0 42 32"> <title>mail</title> <path fill="#ffd700" d="M41.443 4.372l-1.661-1.661-15.388 15.388c-1.924 1.924-5.158 1.924-7.082 0l-15.388-15.301-1.661 1.661 11.454 11.454-11.454 11.454 1.661 1.661 11.454-11.454 2.273 2.273c1.399 1.399 3.235 2.186 5.158 2.186s3.76-0.787 5.158-2.186l2.273-2.273 11.454 11.454 1.661-1.661-11.454-11.454z"/> <path fill="#ffd700" d="M38.208 32h-34.536c-2.011 0-3.672-1.661-3.672-3.672v-24.656c0-2.011 1.661-3.672 3.672-3.672h34.536c2.011 0 3.672 1.661 3.672 3.672v24.656c0 2.011-1.661 3.672-3.672 3.672zM3.585 2.361c-0.699 0-1.224 0.525-1.224 1.224v24.656c0 0.699 0.525 1.224 1.224 1.224h34.536c0.699 0 1.224-0.525 1.224-1.224v-24.656c0-0.699-0.525-1.224-1.224-1.224z"/> </symbol>
<symbol id="money" viewBox="0 0 40 32"> <title>money</title> <path fill="#ffd700" d="M0.667 6.667c-0.368 0-0.667-0.299-0.667-0.667s0.299-0.667 0.667-0.667c19.179 0 30.755 0 34.112-5.036 0.164-0.245 0.468-0.355 0.748-0.268 0.28 0.084 0.473 0.343 0.473 0.637v3.333c0 0.368-0.299 0.667-0.667 0.667s-0.667-0.299-0.667-0.667v-1.565c-4.745 4.232-16.157 4.232-34 4.232z"/> <path fill="#ffd700" d="M17.305 9.411c-2.373 0-4.915-0.019-7.617-0.036-2.871-0.020-5.887-0.041-9.021-0.041-0.368 0-0.667-0.299-0.667-0.667s0.299-0.667 0.667-0.667c3.139 0 6.157 0.021 9.029 0.040 14.123 0.092 25.276 0.173 27.82-2.5 0.189-0.197 0.479-0.26 0.731-0.159 0.253 0.1 0.42 0.347 0.42 0.619v2.667c0 0.368-0.299 0.667-0.667 0.667s-0.667-0.299-0.667-0.667v-1.344c-3.211 1.784-10.148 2.088-20.028 2.088z"/> <path fill="#ffd700" d="M20 26.667c1.869 0 3.333-1.464 3.333-3.333 0-1.513-1.028-2.616-3.055-3.277l-0.151-0.049c-0.76-0.248-1.461-0.581-1.461-1.34 0-0.785 0.548-1.333 1.333-1.333 0.939 0 1.565 0.504 1.571 0.509 0.284 0.237 0.703 0.2 0.94-0.080 0.237-0.283 0.2-0.701-0.081-0.939-0.040-0.033-0.995-0.824-2.429-0.824-1.521 0-2.667 1.147-2.667 2.667 0 1.832 1.792 2.417 2.38 2.607l0.151 0.049c1.437 0.469 2.136 1.128 2.136 2.011 0 1.14-0.86 2-2 2-1.237 0-1.945-0.816-2.133-1.067-0.221-0.296-0.64-0.353-0.933-0.135-0.296 0.221-0.356 0.639-0.135 0.933 0.283 0.377 1.345 1.601 3.201 1.601z"/> <path fill="#ffd700" d="M20 28c0.368 0 0.667-0.299 0.667-0.667v-0.667c0-0.368-0.299-0.667-0.667-0.667s-0.667 0.299-0.667 0.667v0.667c0 0.368 0.299 0.667 0.667 0.667z"/> <path fill="#ffd700" d="M20 16.667c0.368 0 0.667-0.299 0.667-0.667v-0.667c0-0.368-0.299-0.667-0.667-0.667s-0.667 0.299-0.667 0.667v0.667c0 0.368 0.299 0.667 0.667 0.667z"/> <path fill="#ffd700" d="M0.667 10.667c-0.368 0-0.667 0.299-0.667 0.667s0.299 0.667 0.667 0.667h38v18.667h-38c-0.368 0-0.667 0.299-0.667 0.667v0c0 0.368 0.299 0.667 0.667 0.667h38.667c0.368 0 0.667-0.299 0.667-0.667v-20c0-0.368-0.299-0.667-0.667-0.667z"/> <path fill="#ffd700" d="M0 13.999v17.335c0 0.368 0.299 0.667 0.667 0.667v0c0.368 0 0.667-0.299 0.667-0.667v-17.335c0-0.368-0.299-0.667-0.667-0.667s-0.667 0.299-0.667 0.667z"/> <path fill="#ffd700" d="M15.333 29.333h-9.401c-0.325 0-0.603-0.236-0.657-0.556-0.197-1.181-1.028-2.167-2.165-2.572-0.265-0.093-0.443-0.344-0.443-0.627v-8.489c0-0.283 0.177-0.533 0.443-0.628 1.139-0.405 1.968-1.391 2.165-2.572 0.053-0.32 0.332-0.556 0.657-0.556h9.401c0.368 0 0.667 0.299 0.667 0.667s-0.299 0.667-0.667 0.667h-8.872c-0.376 1.255-1.269 2.3-2.461 2.865v7.601c1.191 0.567 2.085 1.612 2.461 2.867h8.872c0.368 0 0.667 0.299 0.667 0.667s-0.299 0.667-0.667 0.667z"/> <path fill="#ffd700" d="M24.667 29.333h9.401c0.325 0 0.603-0.236 0.657-0.556 0.197-1.181 1.028-2.167 2.165-2.572 0.265-0.093 0.443-0.344 0.443-0.627v-8.489c0-0.283-0.177-0.533-0.443-0.628-1.139-0.405-1.968-1.391-2.165-2.572-0.053-0.32-0.332-0.556-0.657-0.556h-9.401c-0.368 0-0.667 0.299-0.667 0.667s0.299 0.667 0.667 0.667h8.872c0.375 1.255 1.269 2.3 2.461 2.865v7.601c-1.191 0.567-2.085 1.611-2.461 2.865h-8.872c-0.368 0-0.667 0.299-0.667 0.667s0.299 0.668 0.667 0.668z"/> </symbol>
<symbol id="pencil" viewBox="0 0 32 32"> <title>pencil</title> <path fill="#ffd700" d="M0 32l2.741-11.037 16.815-16.815 8.296 8.296-16.815 16.815zM4.667 22l-1.778 7.111 7.111-1.778 14.963-14.963-5.333-5.333z"/> <path fill="#ffd700" d="M9.259 28.593c-0.741-2.889-2.963-5.111-5.852-5.852l0.519-2.074c3.63 0.889 6.444 3.704 7.333 7.333z"/> <path fill="#ffd700" d="M9.037 24.519l-1.481-1.556 14.741-14.741 1.481 1.481z"/> <path fill="#ffd700" d="M1.481 30.519l3.259-0.815c-0.296-1.185-1.259-2.148-2.444-2.444z"/> <path fill="#ffd700" d="M28.667 11.63l-8.296-8.296 3.333-3.333 0.519 0.074c4 0.519 7.185 3.704 7.704 7.704l0.074 0.519zM23.407 3.333l5.333 5.333 1.037-1.037c-0.593-2.667-2.667-4.741-5.333-5.333z"/> </symbol>
</svg>