<svg id="Black" xmlns="http://www.w3.org/2000/svg" viewBox="0 0 231.09 48.73"><defs><style>.cls-1{fill:#fff;}</style></defs><g id="White"><path class="cls-1" d="M1.29,16.61a2.49,2.49,0,0,1-.67-1.49c0-.44.37-1,1.11-1.75a2,2,0,0,1,1.37-.62c.48,0,1.15.43,2,1.29a3.8,3.8,0,0,0,1,.85,2.53,2.53,0,0,0,1.24.4c1.61,0,2.41-.66,2.41-2a1.14,1.14,0,0,0-.66-1,4.79,4.79,0,0,0-1.64-.59,13.31,13.31,0,0,1-2.12-.58,14.74,14.74,0,0,1-2.13-.94A4.4,4.4,0,0,1,1.61,8.5,5.73,5.73,0,0,1,1,5.66a5.45,5.45,0,0,1,1.7-4A6.23,6.23,0,0,1,7.26,0,9.42,9.42,0,0,1,10.1.4a5.44,5.44,0,0,1,1.77.82l.64.49q.81.75.81,1.26A2.91,2.91,0,0,1,12.7,4.4c-.59.86-1.19,1.29-1.82,1.29a2.6,2.6,0,0,1-1.34-.52,2.75,2.75,0,0,1-.3-.26,3.46,3.46,0,0,0-.4-.33,2.52,2.52,0,0,0-1.38-.34,2.39,2.39,0,0,0-1.4.4A1.3,1.3,0,0,0,5.5,5.75a1.34,1.34,0,0,0,.67,1.16,4,4,0,0,0,1.64.59A17.63,17.63,0,0,1,10,8a13.54,13.54,0,0,1,2.15.79,3.76,3.76,0,0,1,1.64,1.62,5.59,5.59,0,0,1,.66,2.83,6.24,6.24,0,0,1-.67,3,5.15,5.15,0,0,1-1.76,2A8,8,0,0,1,7.5,19.53a8.71,8.71,0,0,1-2.31-.3,6,6,0,0,1-1.75-.74,6.16,6.16,0,0,1-1.92-1.6Z"/><path class="cls-1" d="M24.21,9.75c2.63,2.54,4.51,4.44,5.61,5.72a2.68,2.68,0,0,1,.85,1.61c0,.44-.34,1-1,1.56a3,3,0,0,1-1.7.89c-.44,0-1-.36-1.59-1.09L20.66,12v5a6.67,6.67,0,0,1,0,.91,1.88,1.88,0,0,1-.24.67c-.24.47-.92.7-2,.7s-1.91-.33-2.12-1A4.18,4.18,0,0,1,16.08,17V2.59c0-.4,0-.7,0-.9A2.2,2.2,0,0,1,16.37,1c.24-.47.91-.7,2-.7s1.92.32,2.14,1a4.94,4.94,0,0,1,.13,1.34V7.55q3.53-4,5.69-6.49C27,.35,27.48,0,27.93,0a3,3,0,0,1,1.71.89c.69.6,1,1.11,1,1.55A2.64,2.64,0,0,1,29.9,4c-1,1.15-2.56,2.74-4.66,4.76Z"/><path class="cls-1" d="M47.67.67q1.26.89,1.26,1.71a2.84,2.84,0,0,1-.59,1.37L42.75,12.1v5a6.71,6.71,0,0,1,0,.89,2.07,2.07,0,0,1-.24.68,1.16,1.16,0,0,1-.7.55,5.88,5.88,0,0,1-2.64,0,1.14,1.14,0,0,1-.7-.56,2,2,0,0,1-.24-.7,6.93,6.93,0,0,1,0-.92V12.1L32.56,3.75A2.78,2.78,0,0,1,32,2.38Q32,1.56,33.1.79A3.71,3.71,0,0,1,34.73,0a1.29,1.29,0,0,1,.78.2,3.62,3.62,0,0,1,.93,1.06l4,6.42,4-6.42a3.86,3.86,0,0,1,.85-1A1.48,1.48,0,0,1,46.15,0,3.45,3.45,0,0,1,47.67.67Z"/><path class="cls-1" d="M73,.41c1.16.42,1.73,1,1.73,1.66a4.91,4.91,0,0,1-.31,1.27l-5,14.35a4.13,4.13,0,0,1-.18.44,2.7,2.7,0,0,1-.69.69,2.28,2.28,0,0,1-2.64,0,2.5,2.5,0,0,1-.74-.84l-3-8.93q-2.88,8.49-2.92,8.64a2.56,2.56,0,0,1-.24.44,3.48,3.48,0,0,1-.41.52,1.93,1.93,0,0,1-1.42.59,2.28,2.28,0,0,1-1.36-.38,2.1,2.1,0,0,1-.71-.78L55,17.69,50,3.34a4.44,4.44,0,0,1-.28-1.27c0-.69.58-1.23,1.73-1.63A4.27,4.27,0,0,1,52.8.18a1.11,1.11,0,0,1,.93.41,3.88,3.88,0,0,1,.58,1.27l2.85,8.64L60,2A2.36,2.36,0,0,1,61.3.49,2.68,2.68,0,0,1,62.37.31,2,2,0,0,1,63.6.74a1.93,1.93,0,0,1,.72.84l3,9,2.84-8.69c.14-.39.25-.69.34-.88A1.59,1.59,0,0,1,71,.43a1.37,1.37,0,0,1,.87-.28A3.62,3.62,0,0,1,73,.41Z"/><path class="cls-1" d="M87.14,1.66l7,14.43a3.37,3.37,0,0,1,.44,1.32q0,.93-1.5,1.68a3.48,3.48,0,0,1-1.38.44,1.41,1.41,0,0,1-.83-.23,1.56,1.56,0,0,1-.47-.5c-.09-.17-.23-.43-.4-.77l-1.34-2.8H81.47L80.13,18c-.17.34-.31.59-.4.75a2.09,2.09,0,0,1-.47.48,1.36,1.36,0,0,1-.83.24,3.32,3.32,0,0,1-1.38-.44q-1.5-.72-1.5-1.65A3.37,3.37,0,0,1,76,16.09L83,1.63a2.24,2.24,0,0,1,.87-1A2.31,2.31,0,0,1,85.07.31,2.19,2.19,0,0,1,87.14,1.66ZM85,7.86l-1.71,3.55h3.45Z"/><path class="cls-1" d="M110.5,16.06a4.25,4.25,0,0,1,.38,1.35c0,.65-.53,1.2-1.6,1.65a3.64,3.64,0,0,1-1.33.37,1.34,1.34,0,0,1-.83-.25,1.72,1.72,0,0,1-.48-.5q-.26-.49-2-4.69l-.8,0h-3.26V17a6.71,6.71,0,0,1,0,.89,1.9,1.9,0,0,1-.24.69c-.24.46-.92.69-2,.69s-1.91-.31-2.12-.95A4.44,4.44,0,0,1,96,16.94V2.59c0-.4,0-.7,0-.9A2.2,2.2,0,0,1,96.27,1c.24-.47.91-.7,2-.7h5.58A7.17,7.17,0,0,1,108.3,2,6,6,0,0,1,110,4.14a6.8,6.8,0,0,1,.68,3.05A6.43,6.43,0,0,1,108.74,12C109.12,12.92,109.7,14.27,110.5,16.06Zm-9.94-6.59h3.31a2.47,2.47,0,0,0,1.5-.57,2,2,0,0,0,.75-1.71,2,2,0,0,0-.75-1.72,2.47,2.47,0,0,0-1.55-.58h-3.26Z"/><path class="cls-1" d="M114.61.28l4.78,0A9.31,9.31,0,0,1,126,3a8.85,8.85,0,0,1,2.84,6.65,9.24,9.24,0,0,1-2.78,6.76,9.11,9.11,0,0,1-6.74,2.82h-4.73c-1,0-1.71-.21-2-.64a3.4,3.4,0,0,1-.32-1.66V2.56a8.8,8.8,0,0,1,0-.9,2.2,2.2,0,0,1,.25-.68C112.83.52,113.5.28,114.61.28Zm8.14,13a4.53,4.53,0,0,0,1.5-3.48,4.65,4.65,0,0,0-1.46-3.5,4.75,4.75,0,0,0-3.42-1.41h-2.49v9.78h2.51A4.85,4.85,0,0,0,122.75,13.28Z"/><path class="cls-1" d="M156.92,27.88l3.87,0a7.52,7.52,0,0,1,5.33,2.18,7.11,7.11,0,0,1,2.3,5.38,7.5,7.5,0,0,1-2.25,5.46,7.34,7.34,0,0,1-5.44,2.28H156.9c-.85,0-1.38-.17-1.59-.52a2.87,2.87,0,0,1-.25-1.34V29.72a6.49,6.49,0,0,1,0-.74,1.73,1.73,0,0,1,.2-.54C155.49,28.06,156,27.88,156.92,27.88Zm6.59,10.5a3.64,3.64,0,0,0,1.21-2.81,3.76,3.76,0,0,0-1.18-2.83,3.86,3.86,0,0,0-2.77-1.14h-2v7.9h2A3.91,3.91,0,0,0,163.51,38.38Z"/><path class="cls-1" d="M180.4,36.4a2.56,2.56,0,0,1-.63,1.9,2,2,0,0,1-1.42.62H173.4a1.15,1.15,0,0,0,.69,1,2.8,2.8,0,0,0,1.38.4,5.93,5.93,0,0,0,1.9-.25l.23-.09a2.17,2.17,0,0,1,.84-.23c.44,0,.83.32,1.15.94a2.34,2.34,0,0,1,.27,1q0,1.86-4.45,1.86a6.62,6.62,0,0,1-2.75-.54,4.48,4.48,0,0,1-1.87-1.41,6,6,0,0,1-1.32-3.78,5.51,5.51,0,0,1,1.7-4.22A6,6,0,0,1,175.43,32a4.75,4.75,0,0,1,4.26,2A4.23,4.23,0,0,1,180.4,36.4ZM176,37c.53,0,.8-.22.8-.66a1,1,0,0,0-.37-.78,1.65,1.65,0,0,0-1-.29,2.08,2.08,0,0,0-1.35.55,1.56,1.56,0,0,0-.67,1.18Z"/><path class="cls-1" d="M181.85,42.24a.86.86,0,0,1-.4-.79,3.41,3.41,0,0,1,.79-1.66.84.84,0,0,1,.75-.35,3.08,3.08,0,0,1,1.39.51,3.2,3.2,0,0,0,1.58.51c.85,0,1.28-.16,1.28-.5s-.47-.46-1.4-.58a6.88,6.88,0,0,1-2.61-1,2.77,2.77,0,0,1-1-1.18,4.31,4.31,0,0,1-.39-1.91q0-3.3,4.53-3.3a7.32,7.32,0,0,1,3.06.71c.48.22.73.5.73.83a2.54,2.54,0,0,1-.46,1.24c-.31.49-.62.73-.94.73a3,3,0,0,1-.93-.31,3.51,3.51,0,0,0-1.48-.32c-.82,0-1.23.16-1.23.46s.47.69,1.42.82a7.71,7.71,0,0,1,2.68.79,2.36,2.36,0,0,1,1,1,3.63,3.63,0,0,1,.41,1.8,3.86,3.86,0,0,1-.41,1.85,2.62,2.62,0,0,1-1.14,1.14,7.57,7.57,0,0,1-3.36.65A7.17,7.17,0,0,1,181.85,42.24Z"/><path class="cls-1" d="M195.43,30.17a.93.93,0,0,1-.56.43,3.69,3.69,0,0,1-1.05.12,3.82,3.82,0,0,1-1.06-.12.89.89,0,0,1-.55-.44,1.68,1.68,0,0,1-.19-.56,8.65,8.65,0,0,1,0-1.44,1.58,1.58,0,0,1,.18-.53c.19-.38.73-.57,1.63-.57s1.4.19,1.59.57a1.57,1.57,0,0,1,.19.55,6.5,6.5,0,0,1,0,1.44A1.84,1.84,0,0,1,195.43,30.17ZM192,34a6.32,6.32,0,0,1,0-.72,1.84,1.84,0,0,1,.18-.55c.19-.36.73-.54,1.63-.54a2.19,2.19,0,0,1,1.42.35,1.18,1.18,0,0,1,.38.9c0,.14,0,.34,0,.61v7.32a4.35,4.35,0,0,1,0,.72,1.64,1.64,0,0,1-.19.55c-.19.36-.72.54-1.61.54s-1.42-.18-1.61-.56a1.89,1.89,0,0,1-.18-.54,6.49,6.49,0,0,1,0-.74Z"/><path class="cls-1" d="M204.3,41.84a3,3,0,0,1-2.53,1,4.45,4.45,0,0,1-3.25-1.6,5.35,5.35,0,0,1,0-7.48,4.55,4.55,0,0,1,3.35-1.6,3,3,0,0,1,1.29.26A2.75,2.75,0,0,1,204,33a2.27,2.27,0,0,1,.34.4,1.3,1.3,0,0,1,.43-.88,1.81,1.81,0,0,1,1.18-.31,4.27,4.27,0,0,1,1.2.13.89.89,0,0,1,.53.43,1.8,1.8,0,0,1,.19.53,6,6,0,0,1,0,.71v8.66a5,5,0,0,1-1.67,3.88A5.59,5.59,0,0,1,202.44,48a6.38,6.38,0,0,1-3-.77c-1-.52-1.44-1-1.44-1.4a2,2,0,0,1,.62-1.45,5.23,5.23,0,0,1,.62-.6.85.85,0,0,1,.51-.17,1,1,0,0,1,.61.25,3.45,3.45,0,0,0,2.17.77,1.57,1.57,0,0,0,1.3-.62,2.37,2.37,0,0,0,.5-1.51Zm-3.72-4.27a1.72,1.72,0,0,0,.53,1.22,1.77,1.77,0,0,0,1.3.54,1.61,1.61,0,0,0,1.26-.55,1.75,1.75,0,0,0,.51-1.21,1.92,1.92,0,0,0-.48-1.24,1.62,1.62,0,0,0-1.3-.57,1.71,1.71,0,0,0-1.32.56A1.88,1.88,0,0,0,200.58,37.57Z"/><path class="cls-1" d="M215.68,32.21a4.44,4.44,0,0,1,3.48,1.59,5.79,5.79,0,0,1,1.39,3.9v3.68a6.41,6.41,0,0,1,0,.73,1.66,1.66,0,0,1-.18.53c-.2.38-.74.56-1.63.56s-1.56-.25-1.72-.77a3.56,3.56,0,0,1-.12-1.07V37.68a1.69,1.69,0,0,0-1.81-1.82,1.82,1.82,0,0,0-1.34.51,1.75,1.75,0,0,0-.51,1.31v3.7a6.41,6.41,0,0,1,0,.73,1.53,1.53,0,0,1-.2.53c-.18.38-.72.56-1.61.56s-1.42-.18-1.61-.56a1.8,1.8,0,0,1-.18-.56,6.32,6.32,0,0,1,0-.72V34a6,6,0,0,1,0-.7,1.46,1.46,0,0,1,.2-.53c.2-.35.73-.52,1.61-.52s1.37.16,1.57.48a1.62,1.62,0,0,1,.21.85,2.23,2.23,0,0,1,.37-.41,3.38,3.38,0,0,1,.57-.44A2.72,2.72,0,0,1,215.68,32.21Z"/><path class="cls-1" d="M222.3,42.24a.87.87,0,0,1-.39-.79,3.41,3.41,0,0,1,.79-1.66.84.84,0,0,1,.74-.35,3,3,0,0,1,1.39.51,3.26,3.26,0,0,0,1.59.51c.85,0,1.28-.16,1.28-.5s-.47-.46-1.4-.58a7,7,0,0,1-2.62-1,2.82,2.82,0,0,1-1-1.18,4.31,4.31,0,0,1-.4-1.91c0-2.2,1.52-3.3,4.54-3.3a7.24,7.24,0,0,1,3.05.71c.49.22.74.5.74.83a2.54,2.54,0,0,1-.46,1.24c-.31.49-.62.73-.94.73a3.1,3.1,0,0,1-.94-.31,3.44,3.44,0,0,0-1.47-.32c-.82,0-1.23.16-1.23.46s.47.69,1.42.82a7.71,7.71,0,0,1,2.68.79,2.36,2.36,0,0,1,1,1,3.63,3.63,0,0,1,.41,1.8,3.86,3.86,0,0,1-.41,1.85,2.62,2.62,0,0,1-1.14,1.14,7.57,7.57,0,0,1-3.36.65A7.2,7.2,0,0,1,222.3,42.24Z"/><path class="cls-1" d="M231,5.53a262.9,262.9,0,0,0-32.31,2.41,212.49,212.49,0,0,0-33.92,7.44,199,199,0,0,0-30.36,12.33l-1.49.64c-10.61,4.6-21,9.61-32.18,12.43a124.51,124.51,0,0,1-34.2,3.6,155.15,155.15,0,0,1-17.2-1.64,168.3,168.3,0,0,1-16.91-3.59A199,199,0,0,1,0,27.1,199.27,199.27,0,0,0,32.31,39.59c5.57,1.56,11.22,2.82,16.93,3.82A156.15,156.15,0,0,0,66.5,45.27a132.69,132.69,0,0,0,25-1.3,130.81,130.81,0,0,1-24.52,2.14,157.3,157.3,0,0,1-17.21-1.22q-8.56-1.19-17-3.18A202.55,202.55,0,0,1,0,30.56,203.28,203.28,0,0,0,32.63,42.15c5.6,1.41,11.28,2.54,17,3.4A158.92,158.92,0,0,0,66.91,47a133.18,133.18,0,0,0,25.14-1.9,130.56,130.56,0,0,1-24.64,2.72A154.49,154.49,0,0,1,50.21,47c-5.72-.64-11.4-1.58-17-2.77A206.08,206.08,0,0,1,.22,34,207,207,0,0,0,33.08,44.69C38.71,46,44.4,47,50.13,47.68a156.09,156.09,0,0,0,17.29,1A124.4,124.4,0,0,0,101.71,44a120.06,120.06,0,0,0,16.22-6.23c5.26-2.42,10.38-5.08,15.55-7.6l1.73-.83h0a203.6,203.6,0,0,1,31.12-10.19,214.64,214.64,0,0,1,34-5.17A258.72,258.72,0,0,1,231,13.58Z"/></g></svg>