<!-- Generated by IcoMoon.io -->
<svg version="1.1" xmlns="http://www.w3.org/2000/svg" width="42" height="32" viewBox="0 0 42 32">
<title>mail</title>
<path fill="#ffd700" d="M41.443 4.372l-1.661-1.661-15.388 15.388c-1.924 1.924-5.158 1.924-7.082 0l-15.388-15.301-1.661 1.661 11.454 11.454-11.454 11.454 1.661 1.661 11.454-11.454 2.273 2.273c1.399 1.399 3.235 2.186 5.158 2.186s3.76-0.787 5.158-2.186l2.273-2.273 11.454 11.454 1.661-1.661-11.454-11.454z"></path>
<path fill="#ffd700" d="M38.208 32h-34.536c-2.011 0-3.672-1.661-3.672-3.672v-24.656c0-2.011 1.661-3.672 3.672-3.672h34.536c2.011 0 3.672 1.661 3.672 3.672v24.656c0 2.011-1.661 3.672-3.672 3.672zM3.585 2.361c-0.699 0-1.224 0.525-1.224 1.224v24.656c0 0.699 0.525 1.224 1.224 1.224h34.536c0.699 0 1.224-0.525 1.224-1.224v-24.656c0-0.699-0.525-1.224-1.224-1.224z"></path>
</svg>
