<!-- Generated by IcoMoon.io -->
<svg version="1.1" xmlns="http://www.w3.org/2000/svg" width="32" height="32" viewBox="0 0 32 32">
<title>pencil</title>
<path fill="#ffd700" d="M0 32l2.741-11.037 16.815-16.815 8.296 8.296-16.815 16.815zM4.667 22l-1.778 7.111 7.111-1.778 14.963-14.963-5.333-5.333z"></path>
<path fill="#ffd700" d="M9.259 28.593c-0.741-2.889-2.963-5.111-5.852-5.852l0.519-2.074c3.63 0.889 6.444 3.704 7.333 7.333z"></path>
<path fill="#ffd700" d="M9.037 24.519l-1.481-1.556 14.741-14.741 1.481 1.481z"></path>
<path fill="#ffd700" d="M1.481 30.519l3.259-0.815c-0.296-1.185-1.259-2.148-2.444-2.444z"></path>
<path fill="#ffd700" d="M28.667 11.63l-8.296-8.296 3.333-3.333 0.519 0.074c4 0.519 7.185 3.704 7.704 7.704l0.074 0.519zM23.407 3.333l5.333 5.333 1.037-1.037c-0.593-2.667-2.667-4.741-5.333-5.333z"></path>
</svg>
