<?xml version="1.0" encoding="UTF-8" standalone="no"?>
<svg
   xmlns:dc="http://purl.org/dc/elements/1.1/"
   xmlns:cc="http://creativecommons.org/ns#"
   xmlns:rdf="http://www.w3.org/1999/02/22-rdf-syntax-ns#"
   xmlns:svg="http://www.w3.org/2000/svg"
   xmlns="http://www.w3.org/2000/svg"
   xmlns:sodipodi="http://sodipodi.sourceforge.net/DTD/sodipodi-0.dtd"
   xmlns:inkscape="http://www.inkscape.org/namespaces/inkscape"
   inkscape:version="1.0 (4035a4fb49, 2020-05-01)"
   sodipodi:docname="book.svg"
   xml:space="preserve"
   width="34"
   viewBox="0 0 34 46"
   version="1.1"
   id="Layer_1"
   height="46"
   enable-background="new 0 0 48 48"><metadata
     id="metadata9"><rdf:RDF><cc:Work
         rdf:about=""><dc:format>image/svg+xml</dc:format><dc:type
           rdf:resource="http://purl.org/dc/dcmitype/StillImage" /></cc:Work></rdf:RDF></metadata><defs
     id="defs7" /><sodipodi:namedview
     inkscape:current-layer="Layer_1"
     inkscape:cy="23"
     inkscape:cx="17"
     inkscape:zoom="21"
     showgrid="false"
     id="namedview5"
     inkscape:window-height="480"
     inkscape:window-width="640"
     inkscape:pageshadow="2"
     inkscape:pageopacity="0"
     guidetolerance="10"
     gridtolerance="10"
     objecttolerance="10"
     borderopacity="1"
     bordercolor="#666666"
     pagecolor="#ffffff" /><path
     style="fill:#ffd700;fill-opacity:1"
     id="path2"
     fill-rule="evenodd"
     d="m 34,45 v 0 c 0,0.553 -0.447,1 -1,1 H 5 v 0 C 2.238,46 0,43.762 0,41 V 5 C 0,2.239 2.238,0 5,0 v 0 h 26 v 0 c 0.414,0 0.77,0.252 0.922,0.611 C 31.972,0.73 32,0.862 32,1 v 0 7 0 h 1 v 0 c 0.278,0 0.529,0.115 0.711,0.298 C 33.889,8.479 34,8.726 34,9 c 0,0 0,0 0,0 z M 2,41 v 0 0 c 0,1.657 1.344,3 3,3 H 8 V 10 H 5 v 0 C 3.869,10 2.838,9.61 2,8.978 Z M 30,8 V 2 H 5 V 2 2 C 3.344,2 2,3.343 2,5 2,6.657 3.344,8 5,8 Z m 2,2 H 10 V 44 H 32 Z M 5,6 C 4.447,6 4,5.552 4,5 4,4.448 4.447,4 5,4 h 22 c 0.553,0 1,0.448 1,1 0,0.552 -0.447,1 -1,1 z"
     clip-rule="evenodd" /></svg>
