<?xml version="1.0" encoding="UTF-8" standalone="no"?>
<svg
   xmlns:dc="http://purl.org/dc/elements/1.1/"
   xmlns:cc="http://creativecommons.org/ns#"
   xmlns:rdf="http://www.w3.org/1999/02/22-rdf-syntax-ns#"
   xmlns:svg="http://www.w3.org/2000/svg"
   xmlns="http://www.w3.org/2000/svg"
   xmlns:sodipodi="http://sodipodi.sourceforge.net/DTD/sodipodi-0.dtd"
   xmlns:inkscape="http://www.inkscape.org/namespaces/inkscape"
   inkscape:version="1.0 (4035a4fb49, 2020-05-01)"
   sodipodi:docname="chat.svg"
   id="svg7"
   viewBox="0 0 761.59998 716.79999"
   height="716.79999"
   width="761.59998"
   version="1.1">
  <metadata
     id="metadata13">
    <rdf:RDF>
      <cc:Work
         rdf:about="">
        <dc:format>image/svg+xml</dc:format>
        <dc:type
           rdf:resource="http://purl.org/dc/dcmitype/StillImage" />
      </cc:Work>
    </rdf:RDF>
  </metadata>
  <defs
     id="defs11" />
  <sodipodi:namedview
     inkscape:current-layer="svg7"
     inkscape:cy="358.4"
     inkscape:cx="377.6"
     inkscape:zoom="0.984375"
     showgrid="false"
     id="namedview9"
     inkscape:window-height="480"
     inkscape:window-width="640"
     inkscape:pageshadow="2"
     inkscape:pageopacity="0"
     guidetolerance="10"
     gridtolerance="10"
     objecttolerance="10"
     borderopacity="1"
     bordercolor="#666666"
     pagecolor="#ffffff" />
  <title
     id="title2" />
  <g
     transform="translate(-134.4,-153.6)"
     id="icomoon-ignore" />
  <path
     id="path5"
     d="m 153.6,716.8 h -40 l 24,-33.6 c 17.6,-25.6 30.4,-56 36.8,-96 C 60.8,536 0,440 0,313.6 0,120 145.6,0 380.8,0 616,0 761.6,120 761.6,313.6 c 0,195.2 -142.4,313.6 -380.8,313.6 -4.8,0 -11.2,0 -16,0 -38.4,41.6 -102.4,89.6 -211.2,89.6 z m 224,-675.2 c -212.8,0 -339.2,100.8 -339.2,272 0,145.6 89.6,211.2 163.2,241.6 l 14.4,6.4 -1.6,16 c -4.8,36.8 -12.8,68.8 -25.6,96 76.8,-9.6 121.6,-48 145.6,-80 l 6.4,-8 h 14.4 c 6.4,0 14.4,0 20.8,0 305.6,0 339.2,-190.4 339.2,-272 C 716.8,144 590.4,41.6 377.6,41.6 Z"
     fill="#ffd700" />
</svg>
