<?xml version="1.0" encoding="UTF-8" standalone="no"?>
<svg
   xmlns:dc="http://purl.org/dc/elements/1.1/"
   xmlns:cc="http://creativecommons.org/ns#"
   xmlns:rdf="http://www.w3.org/1999/02/22-rdf-syntax-ns#"
   xmlns:svg="http://www.w3.org/2000/svg"
   xmlns="http://www.w3.org/2000/svg"
   xmlns:sodipodi="http://sodipodi.sourceforge.net/DTD/sodipodi-0.dtd"
   xmlns:inkscape="http://www.inkscape.org/namespaces/inkscape"
   inkscape:export-ydpi="96"
   inkscape:export-xdpi="96"
   inkscape:export-filename="E:\Work\Personal Sites\eddiecleary.com\eddiecleary\src\images\original\icons\glasses_color.png"
   id="Layer_1"
   data-name="Layer 1"
   viewBox="0 0 302.67387 302.67386"
   version="1.1"
   sodipodi:docname="glasses_color.svg"
   inkscape:version="1.0 (4035a4fb49, 2020-05-01)"
   width="302.67386"
   height="302.67386">
  <metadata
     id="metadata857">
    <rdf:RDF>
      <cc:Work
         rdf:about="">
        <dc:format>image/svg+xml</dc:format>
        <dc:type
           rdf:resource="http://purl.org/dc/dcmitype/StillImage" />
        <dc:title />
      </cc:Work>
    </rdf:RDF>
  </metadata>
  <sodipodi:namedview
     inkscape:document-rotation="0"
     pagecolor="#ffffff"
     bordercolor="#666666"
     borderopacity="1"
     objecttolerance="10"
     gridtolerance="10"
     guidetolerance="10"
     inkscape:pageopacity="0"
     inkscape:pageshadow="2"
     inkscape:window-width="640"
     inkscape:window-height="480"
     id="namedview855"
     showgrid="false"
     inkscape:zoom="1.7345404"
     inkscape:cx="140.08206"
     inkscape:cy="274.90278"
     inkscape:current-layer="Layer_1" />
  <defs
     id="defs848">
    <style
       id="style846">.cls-1{fill:#fff}</style>
  </defs>
  <circle
     style="fill:#160079;fill-opacity:1;stroke-width:3.74023;stroke-linejoin:round;paint-order:stroke fill markers"
     id="path1631"
     cx="151.33693"
     cy="151.33693"
     r="151.33693" />
  <path
     id="path850"
     style="fill:#ffd700;fill-opacity:1"
     inkscape:label="path850"
     d="m 233.54006,116.29007 c -15.63198,0.0945 -34.50828,1.70625 -55.73828,6.39844 -10.19489,1.88851 -21.2162,6.00977 -26.81055,6.99609 -5.77348,-1.16867 -16.37154,-5.04624 -26.18945,-6.87695 -61.700005,-13.64 -103.529305,-1.21875 -103.529305,-1.21875 l 1.5293,10.31836 c 1.5,-0.37 4.18039,1.11164 5.90039,4.68164 1.72,3.57 4.41984,19.53922 9.58984,32.44922 5.17,12.91 18.37993,14.00047 34.91993,16.23047 16.7,2.27 42.780155,1.11031 49.910155,-3.67969 7.13,-4.79 17.46039,-26.44039 19.40039,-36.15039 1.75582,-8.78816 10.75291,-6.92975 12.46094,-6.49414 2.29028,0.79771 4.39472,2.59079 5.14844,6.36328 1.94,9.71 12.26062,31.36039 19.39062,36.15039 7.13,4.79 33.21995,5.99946 49.91992,3.68946 16.54001,-2.24 29.75993,-3.31852 34.91993,-16.22852 5.16,-12.91 7.86984,-28.89094 9.58984,-32.46094 1.72,-3.57 4.40039,-4.99992 5.90039,-4.66992 l 1.54883,-10.33008 c 0,0 -18.01846,-5.34844 -47.86133,-5.16797 z m 15.5586,6.01563 c 5.83359,-0.0305 17.535,0.59429 17.8125,6.0918 0.37,7.33 -3.44922,30.06132 -10.69922,41.11132 h -0.041 c -5.37,11.99 -58.70828,10.77961 -64.48828,10.34961 -5.78,-0.43 -11.82031,-4.74945 -16.57031,-20.18945 -4.75,-15.44 -9.82961,-22.78133 -3.09961,-27.61133 17.68,-9.76999 73.84961,-9.66016 73.84961,-9.66016 0,0 1.29177,-0.0816 3.23633,-0.0918 z m -194.757825,0.0332 c 1.94063,0.0133 3.23047,0.0996 3.23047,0.0996 0,0 56.229695,-0.15086 73.929695,9.61914 6.73,4.83 1.64039,12.17133 -3.09961,27.61133 v 0.0293 c -4.75,15.41 -10.78961,19.73016 -16.59961,20.16016 -5.81001,0.43 -59.089305,1.64039 -64.529305,-10.34961 -7.24,-11 -11.06117,-33.70032 -10.70117,-41.07032 0.27,-5.52751 11.94766,-6.13945 17.76953,-6.09961 z" />
</svg>
