<?xml version="1.0" encoding="UTF-8" standalone="no"?>
<svg
   xmlns:dc="http://purl.org/dc/elements/1.1/"
   xmlns:cc="http://creativecommons.org/ns#"
   xmlns:rdf="http://www.w3.org/1999/02/22-rdf-syntax-ns#"
   xmlns:svg="http://www.w3.org/2000/svg"
   xmlns="http://www.w3.org/2000/svg"
   xmlns:sodipodi="http://sodipodi.sourceforge.net/DTD/sodipodi-0.dtd"
   xmlns:inkscape="http://www.inkscape.org/namespaces/inkscape"
   height="70.102646"
   width="260.12891"
   inkscape:version="1.0 (4035a4fb49, 2020-05-01)"
   sodipodi:docname="glasses.svg"
   version="1.1"
   viewBox="0 0 260.12892 70.102646"
   data-name="Layer 1"
   id="Layer_1">
  <metadata
     id="metadata857">
    <rdf:RDF>
      <cc:Work
         rdf:about="">
        <dc:format>image/svg+xml</dc:format>
        <dc:type
           rdf:resource="http://purl.org/dc/dcmitype/StillImage" />
        <dc:title></dc:title>
      </cc:Work>
    </rdf:RDF>
  </metadata>
  <sodipodi:namedview
     inkscape:current-layer="Layer_1"
     inkscape:cy="158.61718"
     inkscape:cx="118.80958"
     inkscape:zoom="1.7345404"
     showgrid="false"
     id="namedview855"
     inkscape:window-height="480"
     inkscape:window-width="640"
     inkscape:pageshadow="2"
     inkscape:pageopacity="0"
     guidetolerance="10"
     gridtolerance="10"
     objecttolerance="10"
     borderopacity="1"
     bordercolor="#666666"
     pagecolor="#ffffff" />
  <defs
     id="defs848">
    <style
       id="style846">.cls-1{fill:#fff}</style>
  </defs>
  <path
     d="M 212.26758,0.00446652 C 196.6356,0.09896652 177.7593,1.7107165 156.5293,6.4029065 146.33441,8.2914165 135.3131,12.412677 129.71875,13.398997 123.94527,12.230327 113.34721,8.3527565 103.5293,6.5220465 41.8293,-7.1179535 0,5.3032965 0,5.3032965 L 1.5293,15.621657 c 1.5,-0.37 4.18039,1.11164 5.90039,4.68164 1.72,3.57 4.41984,19.53922 9.58984,32.44922 5.17,12.91 18.37993,14.00047 34.91993,16.23047 16.7,2.27 42.780155,1.11031 49.91016,-3.67969 7.12999,-4.79 17.46038,-26.44039 19.40039,-36.15039 1.75582,-8.78816 10.7529,-6.92975 12.46093,-6.49414 2.29028,0.79771 4.39473,2.59079 5.14844,6.36328 1.94,9.71 12.26062,31.36039 19.39063,36.15039 7.12999,4.79 33.21994,5.99946 49.91991,3.68946 16.54001,-2.24 29.75993,-3.31852 34.91994,-16.22852 5.16,-12.91 7.86984,-28.89094 9.58983,-32.46094 1.72001,-3.57 4.4004,-4.99992 5.9004,-4.66992 l 1.54882,-10.3300805 c 0,0 -18.01845,-5.34843998 -47.86133,-5.16796998 z m 15.5586,6.01562998 c 5.83359,-0.0305 17.535,0.59429 17.8125,6.0918005 0.37,7.33 -3.44922,30.06132 -10.69922,41.11132 h -0.041 c -5.37,11.99 -58.70828,10.77961 -64.48828,10.34961 -5.78,-0.43 -11.82031,-4.74945 -16.57031,-20.18945 -4.75,-15.44 -9.82961,-22.78133 -3.09961,-27.61133 17.68,-9.7699905 73.84961,-9.6601605 73.84961,-9.6601605 0,0 1.29177,-0.0816 3.23633,-0.0918 z m -194.75782,0.0332 c 1.94063,0.0133 3.23047,0.0996 3.23047,0.0996 0,0 56.229695,-0.15086 73.9297,9.6191405 6.73,4.83 1.64039,12.17133 -3.09961,27.61133 v 0.0293 c -4.75,15.41 -10.789615,19.73016 -16.599615,20.16016 C 84.719295,64.002827 31.44,65.213217 26,53.223217 c -7.24,-11 -11.06117,-33.70032 -10.70117,-41.07032 0.27,-5.5275105 11.94766,-6.1394505 17.76953,-6.0996105 z"
     inkscape:label="path850"
     style="fill:#ffffff;fill-opacity:1"
     id="path850" />
</svg>
