<?xml version="1.0" encoding="UTF-8" standalone="no"?>
<svg
   xmlns:dc="http://purl.org/dc/elements/1.1/"
   xmlns:cc="http://creativecommons.org/ns#"
   xmlns:rdf="http://www.w3.org/1999/02/22-rdf-syntax-ns#"
   xmlns:svg="http://www.w3.org/2000/svg"
   xmlns="http://www.w3.org/2000/svg"
   xmlns:sodipodi="http://sodipodi.sourceforge.net/DTD/sodipodi-0.dtd"
   xmlns:inkscape="http://www.inkscape.org/namespaces/inkscape"
   inkscape:version="1.0 (4035a4fb49, 2020-05-01)"
   sodipodi:docname="heart.svg"
   id="svg7"
   viewBox="0 0 764.79999 668.79999"
   height="668.79999"
   width="764.79999"
   version="1.1">
  <metadata
     id="metadata13">
    <rdf:RDF>
      <cc:Work
         rdf:about="">
        <dc:format>image/svg+xml</dc:format>
        <dc:type
           rdf:resource="http://purl.org/dc/dcmitype/StillImage" />
      </cc:Work>
    </rdf:RDF>
  </metadata>
  <defs
     id="defs11" />
  <sodipodi:namedview
     inkscape:current-layer="svg7"
     inkscape:cy="334.4"
     inkscape:cx="382.4"
     inkscape:zoom="0.984375"
     showgrid="false"
     id="namedview9"
     inkscape:window-height="480"
     inkscape:window-width="640"
     inkscape:pageshadow="2"
     inkscape:pageopacity="0"
     guidetolerance="10"
     gridtolerance="10"
     objecttolerance="10"
     borderopacity="1"
     bordercolor="#666666"
     pagecolor="#ffffff" />
  <title
     id="title2" />
  <g
     transform="translate(-129.6,-177.6)"
     id="icomoon-ignore" />
  <path
     id="path5"
     d="M 382.4,668.8 369.6,657.6 C 78.4,420.8 0,337.6 0,201.6 0,89.6 91.2,0 201.6,0 294.4,0 347.2,52.8 382.4,92.8 417.6,52.8 470.4,0 563.2,0 c 112,0 201.6,91.2 201.6,201.6 0,136 -78.4,219.2 -369.6,456 z M 201.6,41.6 c -88,0 -160,72 -160,160 0,116.8 73.6,193.6 340.8,412.8 267.2,-219.2 340.8,-296 340.8,-412.8 0,-88 -72,-160 -160,-160 -80,0 -123.2,48 -156.8,86.4 l -24,27.2 -24,-27.2 C 324.8,89.6 281.6,41.6 201.6,41.6 Z"
     fill="#ffd700" />
</svg>
