<?xml version="1.0" encoding="UTF-8" standalone="no"?>
<svg
   xmlns:dc="http://purl.org/dc/elements/1.1/"
   xmlns:cc="http://creativecommons.org/ns#"
   xmlns:rdf="http://www.w3.org/1999/02/22-rdf-syntax-ns#"
   xmlns:svg="http://www.w3.org/2000/svg"
   xmlns="http://www.w3.org/2000/svg"
   xmlns:sodipodi="http://sodipodi.sourceforge.net/DTD/sodipodi-0.dtd"
   xmlns:inkscape="http://www.inkscape.org/namespaces/inkscape"
   inkscape:version="1.0 (4035a4fb49, 2020-05-01)"
   sodipodi:docname="image.svg"
   id="svg13"
   viewBox="0 0 766.40002 585.59998"
   height="585.59998"
   width="766.40002"
   version="1.1">
  <metadata
     id="metadata19">
    <rdf:RDF>
      <cc:Work
         rdf:about="">
        <dc:format>image/svg+xml</dc:format>
        <dc:type
           rdf:resource="http://purl.org/dc/dcmitype/StillImage" />
      </cc:Work>
    </rdf:RDF>
  </metadata>
  <defs
     id="defs17" />
  <sodipodi:namedview
     inkscape:current-layer="svg13"
     inkscape:cy="291.2"
     inkscape:cx="382.4"
     inkscape:zoom="0.984375"
     showgrid="false"
     id="namedview15"
     inkscape:window-height="480"
     inkscape:window-width="640"
     inkscape:pageshadow="2"
     inkscape:pageopacity="0"
     guidetolerance="10"
     gridtolerance="10"
     objecttolerance="10"
     borderopacity="1"
     bordercolor="#666666"
     pagecolor="#ffffff" />
  <title
     id="title2" />
  <g
     transform="translate(-129.6,-220.8)"
     id="icomoon-ignore" />
  <path
     id="path5"
     d="M 699.2,585.6 H 67.2 C 30.4,585.6 0,555.2 0,518.4 V 67.2 C 0,30.4 30.4,0 67.2,0 h 632 c 36.8,0 67.2,30.4 67.2,67.2 v 451.2 c 0,36.8 -30.4,67.2 -67.2,67.2 z M 65.6,43.2 c -12.8,0 -22.4,9.6 -22.4,22.4 v 451.2 c 0,12.8 9.6,22.4 22.4,22.4 h 632 c 12.8,0 22.4,-9.6 22.4,-22.4 V 65.6 c 0,-12.8 -9.6,-22.4 -22.4,-22.4 z"
     fill="#ffd700" />
  <path
     id="path7"
     d="m 496,267.2 c -49.6,0 -88,-40 -88,-88 0,-48 40,-88 88,-88 48,0 88,40 88,88 0,48 -40,88 -88,88 z m 0,-136 c -25.6,0 -46.4,20.8 -46.4,46.4 0,25.6 20.8,46.4 46.4,46.4 25.6,0 46.4,-20.8 46.4,-46.4 0,-25.6 -20.8,-46.4 -46.4,-46.4 z"
     fill="#ffd700" />
  <path
     id="path9"
     d="M 616,577.6 246.4,230.4 35.2,425.6 6.4,395.2 246.4,172.8 644.8,547.2 Z"
     fill="#ffd700" />
  <path
     id="path11"
     d="M 731.2,462.4 608,363.2 505.6,448 478.4,414.4 608,308.8 756.8,430.4 Z"
     fill="#ffd700" />
</svg>
