<?xml version="1.0" encoding="UTF-8" standalone="no"?>
<svg
   xmlns:dc="http://purl.org/dc/elements/1.1/"
   xmlns:cc="http://creativecommons.org/ns#"
   xmlns:rdf="http://www.w3.org/1999/02/22-rdf-syntax-ns#"
   xmlns:svg="http://www.w3.org/2000/svg"
   xmlns="http://www.w3.org/2000/svg"
   xmlns:sodipodi="http://sodipodi.sourceforge.net/DTD/sodipodi-0.dtd"
   xmlns:inkscape="http://www.inkscape.org/namespaces/inkscape"
   inkscape:version="1.0 (4035a4fb49, 2020-05-01)"
   sodipodi:docname="like.svg"
   id="svg9"
   viewBox="0 0 768 720"
   height="720"
   width="768"
   version="1.1">
  <metadata
     id="metadata15">
    <rdf:RDF>
      <cc:Work
         rdf:about="">
        <dc:format>image/svg+xml</dc:format>
        <dc:type
           rdf:resource="http://purl.org/dc/dcmitype/StillImage" />
      </cc:Work>
    </rdf:RDF>
  </metadata>
  <defs
     id="defs13" />
  <sodipodi:namedview
     inkscape:current-layer="svg9"
     inkscape:cy="360"
     inkscape:cx="384"
     inkscape:zoom="0.984375"
     showgrid="false"
     id="namedview11"
     inkscape:window-height="480"
     inkscape:window-width="640"
     inkscape:pageshadow="2"
     inkscape:pageopacity="0"
     guidetolerance="10"
     gridtolerance="10"
     objecttolerance="10"
     borderopacity="1"
     bordercolor="#666666"
     pagecolor="#ffffff" />
  <title
     id="title2" />
  <g
     transform="translate(-128,-152)"
     id="icomoon-ignore" />
  <path
     id="path5"
     d="M 768,366.4 C 768,315.2 728,288 672,288 H 510.4 C 521.6,244.8 528,203.2 528,168 528,28.8 489.6,0 456,0 c -22.4,0 -38.4,1.6 -60.8,16 -6.4,3.2 -9.6,9.6 -11.2,16 l -24,129.6 c -25.6,68.8 -91.2,128 -144,168 V 672 c 17.6,0 40,9.6 60.8,20.8 25.6,12.8 52.8,25.6 83.2,25.6 h 228.8 c 48,0 83.2,-38.4 83.2,-72 0,-6.4 0,-12.8 -1.6,-17.6 30.4,-11.2 49.6,-36.8 49.6,-65.6 0,-14.4 -3.2,-27.2 -8,-36.8 17.6,-12.8 36.8,-33.6 36.8,-59.2 0,-12.8 -6.4,-28.8 -16,-40 20.8,-16 35.2,-38.4 35.2,-60.8 z m -49.6,0 c 0,30.4 -32,33.6 -36.8,48 -4.8,16 19.2,22.4 19.2,51.2 0,30.4 -36.8,30.4 -41.6,44.8 -6.4,17.6 11.2,24 11.2,52.8 0,1.6 0,3.2 0,4.8 -4.8,24 -41.6,25.6 -48,35.2 -6.4,11.2 1.6,17.6 1.6,43.2 0,14.4 -16,24 -35.2,24 H 360 c -17.6,0 -40,-9.6 -60.8,-20.8 C 280,640 260.8,630.4 240,625.6 V 371.2 c 59.2,-44.8 136,-113.6 166.4,-196.8 0,-1.6 0,-3.2 1.6,-3.2 l 22.4,-120 c 8,-3.2 14.4,-3.2 27.2,-3.2 4.8,0 24,28.8 24,120 0,35.2 -6.4,75.2 -19.2,120 H 456 c -12.8,0 -24,11.2 -24,24 0,12.8 11.2,24 24,24 h 216 c 24,0 46.4,11.2 46.4,30.4 z"
     fill="#ffd700" />
  <path
     id="path7"
     d="M 192,720 H 48 C 20.8,720 0,699.2 0,672 V 336 c 0,-27.2 20.8,-48 48,-48 h 144 c 27.2,0 48,20.8 48,48 v 336 c 0,27.2 -20.8,48 -48,48 z M 48,336 V 672 H 192 V 336 Z"
     fill="#ffd700" />
</svg>
