<?xml version="1.0" encoding="UTF-8" standalone="no"?>
<svg
   xmlns:dc="http://purl.org/dc/elements/1.1/"
   xmlns:cc="http://creativecommons.org/ns#"
   xmlns:rdf="http://www.w3.org/1999/02/22-rdf-syntax-ns#"
   xmlns:svg="http://www.w3.org/2000/svg"
   xmlns="http://www.w3.org/2000/svg"
   xmlns:sodipodi="http://sodipodi.sourceforge.net/DTD/sodipodi-0.dtd"
   xmlns:inkscape="http://www.inkscape.org/namespaces/inkscape"
   inkscape:version="1.0 (4035a4fb49, 2020-05-01)"
   sodipodi:docname="logo_white.svg"
   version="1.1"
   viewBox="0 0 721.97 198.64"
   data-name="Layer 1"
   id="Layer_1">
  <metadata
     id="metadata857">
    <rdf:RDF>
      <cc:Work
         rdf:about="">
        <dc:format>image/svg+xml</dc:format>
        <dc:type
           rdf:resource="http://purl.org/dc/dcmitype/StillImage" />
      </cc:Work>
    </rdf:RDF>
  </metadata>
  <sodipodi:namedview
     inkscape:current-layer="Layer_1"
     inkscape:cy="143.78115"
     inkscape:cx="243.26909"
     inkscape:zoom="2.4530105"
     showgrid="false"
     id="namedview855"
     inkscape:window-height="480"
     inkscape:window-width="640"
     inkscape:pageshadow="2"
     inkscape:pageopacity="0"
     guidetolerance="10"
     gridtolerance="10"
     objecttolerance="10"
     borderopacity="1"
     bordercolor="#666666"
     pagecolor="#ffffff" />
  <defs
     id="defs848">
    <style
       id="style846">.cls-1{fill:#fff}</style>
  </defs>
  <path
     d="M 412.73828 0.001953125 C 397.1063 0.096487732 378.23 1.7082031 357 6.4003906 C 346.80511 8.2889018 335.7838 12.410162 330.18945 13.396484 C 324.41597 12.227812 313.81791 8.3502391 304 6.5195312 C 242.3 -7.1204688 200.4707 5.3007812 200.4707 5.3007812 L 202 15.619141 C 203.5 15.249141 206.18039 16.730781 207.90039 20.300781 C 209.62039 23.870781 212.32023 39.84 217.49023 52.75 C 222.66023 65.66 235.87016 66.750469 252.41016 68.980469 C 269.11016 71.250469 295.19031 70.090781 302.32031 65.300781 C 309.45031 60.510781 319.7807 38.860391 321.7207 29.150391 C 323.47652 20.362234 332.47361 22.220642 334.18164 22.65625 C 336.47192 23.453959 338.57636 25.247043 339.33008 29.019531 C 341.27008 38.729531 351.5907 60.379922 358.7207 65.169922 C 365.8507 69.959922 391.94062 71.169375 408.64062 68.859375 C 425.18063 66.619375 438.40055 65.540859 443.56055 52.630859 C 448.72055 39.720859 451.43039 23.739922 453.15039 20.169922 C 454.87039 16.599922 457.55078 15.17 459.05078 15.5 L 460.59961 5.1699219 C 460.59961 5.1699219 442.58115 -0.17852203 412.73828 0.001953125 z M 428.29688 6.0175781 C 434.13047 5.9871094 445.83188 6.611875 446.10938 12.109375 C 446.47938 19.439375 442.66016 42.170703 435.41016 53.220703 L 435.36914 53.220703 C 429.99914 65.210703 376.66086 64.000313 370.88086 63.570312 C 365.10086 63.140313 359.06055 58.820859 354.31055 43.380859 C 349.56055 27.940859 344.48094 20.599531 351.21094 15.769531 C 368.89094 5.9995313 425.06055 6.109375 425.06055 6.109375 C 425.06055 6.109375 426.35234 6.0277344 428.29688 6.0175781 z M 233.53906 6.0507812 C 235.47969 6.0640625 236.76953 6.1503906 236.76953 6.1503906 C 236.76953 6.1503906 292.99922 5.9995312 310.69922 15.769531 C 317.42922 20.599531 312.33961 27.940859 307.59961 43.380859 L 307.59961 43.410156 C 302.84961 58.820156 296.81 63.140313 291 63.570312 C 285.19 64.000312 231.9107 65.210703 226.4707 53.220703 C 219.2307 42.220703 215.40953 19.520391 215.76953 12.150391 C 216.03953 6.6228906 227.71719 6.0109375 233.53906 6.0507812 z M 120.65039 89.740234 L 106.9707 92 L 106.9707 120.41016 A 33.81 33.81 0 0 0 101.31055 118.15039 A 25.49 25.49 0 0 0 93.740234 117.15039 A 26.91 26.91 0 0 0 82.539062 119.35938 A 23 23 0 0 0 74.289062 125.63086 A 27.82 27.82 0 0 0 69.150391 135.41016 A 43.22 43.22 0 0 0 67.390625 148.13086 A 37.27 37.27 0 0 0 69.480469 160.9707 A 27.14 27.14 0 0 0 75.480469 170.68945 A 26.15 26.15 0 0 0 84.919922 176.85938 A 34.51 34.51 0 0 0 97.470703 179 A 83.57 83.57 0 0 0 120.65039 175.67969 L 120.65039 89.740234 z M 194.82031 89.740234 L 181.13086 92 L 181.13086 120.41016 A 33.68 33.68 0 0 0 175.48047 118.15039 A 25.56 25.56 0 0 0 167.90039 117.15039 A 26.83 26.83 0 0 0 156.71094 119.35938 A 23 23 0 0 0 148.46094 125.63086 A 28 28 0 0 0 143.31055 135.41016 A 43.23 43.23 0 0 0 141.56055 148.13086 A 37.27 37.27 0 0 0 143.65039 160.9707 A 27 27 0 0 0 149.65039 170.68945 A 26.19 26.19 0 0 0 159.09961 176.85938 A 34.51 34.51 0 0 0 171.65039 179 A 83.73 83.73 0 0 0 194.83008 175.67969 L 194.82031 89.740234 z M 453.83008 89.740234 L 440.15039 92 L 440.15039 160.08008 A 29.37 29.37 0 0 0 441.15039 167.93945 A 12.68 12.68 0 0 0 444.49023 173.71094 A 15.59 15.59 0 0 0 450.88086 177.26953 A 37.22 37.22 0 0 0 461 178.63086 L 462.88086 167.34961 A 22.3 22.3 0 0 1 458.41016 166.34961 A 6.41 6.41 0 0 1 455.64062 164.53906 A 6.64 6.64 0 0 1 454.23047 161.65039 A 18.32 18.32 0 0 1 453.83008 157.4707 L 453.83008 89.740234 z M 225.75 92.578125 A 8.57 8.57 0 0 0 219.91992 94.839844 A 8 8 0 0 0 217.42969 101.06055 A 7.82 7.82 0 0 0 219.91992 107.16016 A 8.57 8.57 0 0 0 225.91992 109.41992 A 8.45 8.45 0 0 0 231.80078 107.16016 A 7.82 7.82 0 0 0 234.28906 101.06055 A 8 8 0 0 0 231.80078 94.839844 A 8.45 8.45 0 0 0 225.91992 92.580078 A 8.57 8.57 0 0 0 225.75 92.578125 z M 397.42773 97.269531 A 41.24 41.24 0 0 0 382.64062 99.990234 A 34.29 34.29 0 0 0 370.42969 107.99023 A 37.74 37.74 0 0 0 362.23047 120.82031 A 47.11 47.11 0 0 0 359.23047 138.24023 A 53.62 53.62 0 0 0 361.83008 155.65039 A 35.6 35.6 0 0 0 369.30078 168.48047 A 31.21 31.21 0 0 0 381.16992 176.48047 A 43.54 43.54 0 0 0 397 179.18945 A 66.53 66.53 0 0 0 405.48047 178.67969 A 53.76 53.76 0 0 0 412.59961 177.32031 A 50.65 50.65 0 0 0 418.08984 175.57031 A 19 19 0 0 0 421.75977 173.75977 L 417.91992 162.11914 A 50.34 50.34 0 0 1 410.57031 165 A 41.15 41.15 0 0 1 398.26953 166.53906 A 25.58 25.58 0 0 1 387.41992 164.43945 A 19.6 19.6 0 0 1 379.96094 158.56055 A 25 25 0 0 1 375.59961 149.56055 A 43.51 43.51 0 0 1 374.18945 138.14062 A 38.1 38.1 0 0 1 376 125.82031 A 24.43 24.43 0 0 1 381 117 A 20.54 20.54 0 0 1 388.63086 111.75 A 25.47 25.47 0 0 1 398.13086 110 A 37.31 37.31 0 0 1 409 111.4707 A 33.09 33.09 0 0 1 416.75 114.68945 L 420.92969 103.03906 C 420.39969 102.73906 419.5007 102.25031 418.2207 101.57031 A 28.06 28.06 0 0 0 413.34961 99.650391 A 63.55 63.55 0 0 0 406.46094 98.009766 A 48.49 48.49 0 0 0 397.64062 97.269531 A 41.24 41.24 0 0 0 397.42773 97.269531 z M 0 99.130859 L 0 177.49023 L 53 177.5293 L 53 165.43945 L 14.25 165.43945 L 14.25 142.43945 L 46.359375 142.43945 L 46.359375 130.57031 L 14.25 130.57031 L 14.25 111.23047 L 50.320312 111.23047 L 50.320312 99.130859 L 0 99.130859 z M 281.21094 116.86914 A 27.23 27.23 0 0 0 271.03906 118.86914 A 25.2 25.2 0 0 0 262.2207 124.75 A 28.7 28.7 0 0 0 256.05078 134.5293 A 37.27 37.27 0 0 0 253.74023 148.21094 A 39.89 39.89 0 0 0 255.57031 160.43945 A 26.44 26.44 0 0 0 261.11914 170.16016 A 25.29 25.29 0 0 0 270.60938 176.60938 A 36.41 36.41 0 0 0 284.17969 178.91992 A 53.89 53.89 0 0 0 290.17969 178.58984 C 292.13969 178.35984 293.96016 178.08023 295.66016 177.74023 A 45.09 45.09 0 0 0 300.17969 176.60938 A 21.92 21.92 0 0 0 303.28906 175.41992 L 301.48047 164.2207 A 37.81 37.81 0 0 1 294.98047 166.15039 A 42.79 42.79 0 0 1 285.88086 167.05078 C 280.16753 167.03078 275.83419 165.73039 272.88086 163.15039 C 269.92753 160.57039 268.26086 156.90372 267.88086 152.15039 L 306.88086 152.15039 C 306.96086 151.39039 306.99078 150.53961 307.05078 149.59961 C 307.11078 148.65961 307.10938 147.81055 307.10938 147.06055 C 307.11604 137.02721 304.8362 129.48612 300.26953 124.43945 C 295.70286 119.39279 289.35094 116.86914 281.21094 116.86914 z M 504.98047 116.86914 A 27.27 27.27 0 0 0 494.81055 118.86914 A 25.2 25.2 0 0 0 485.99023 124.75 A 28.7 28.7 0 0 0 479.82031 134.5293 A 37.27 37.27 0 0 0 477.50977 148.21094 A 39.89 39.89 0 0 0 479.28906 160.43945 A 26.44 26.44 0 0 0 484.83984 170.16016 A 25.29 25.29 0 0 0 494.33008 176.60938 A 36.41 36.41 0 0 0 507.90039 178.91992 A 53.76 53.76 0 0 0 513.90039 178.58984 C 515.86039 178.35984 517.68086 178.08023 519.38086 177.74023 A 45.09 45.09 0 0 0 523.90039 176.60938 A 21.92 21.92 0 0 0 527.00977 175.41992 L 525.19922 164.2207 A 37.81 37.81 0 0 1 518.69922 166.15039 A 42.72 42.72 0 0 1 509.59961 167.05078 C 503.91961 167.03078 499.60372 165.73039 496.65039 163.15039 C 493.69706 160.57039 492.03039 156.90372 491.65039 152.15039 L 530.65039 152.15039 C 530.72039 151.39039 530.76031 150.53961 530.82031 149.59961 C 530.88031 148.65961 530.88086 147.81055 530.88086 147.06055 C 530.88086 137.02721 528.59906 129.48612 524.03906 124.43945 C 519.47906 119.39279 513.12714 116.86914 504.98047 116.86914 z M 572.7832 116.87891 A 33.5 33.5 0 0 0 571.81055 116.89062 A 59.74 59.74 0 0 0 561.25 117.84961 A 54.91 54.91 0 0 0 553.67969 119.66016 L 555.36914 130.74023 A 38.46 38.46 0 0 1 561.82031 129.16016 A 51.81 51.81 0 0 1 570.51953 128.48047 A 16.27 16.27 0 0 1 576.34961 129.38086 A 9.07 9.07 0 0 1 582.06055 135.7207 A 18 18 0 0 1 582.61914 140.24023 L 582.61914 142.5 A 45.13 45.13 0 0 0 577.31055 141.5 A 41.74 41.74 0 0 0 572.56055 141.2207 A 44.33 44.33 0 0 0 563.23047 142.2207 A 23.2 23.2 0 0 0 555.36914 145.38086 A 16.26 16.26 0 0 0 550 151.09961 A 17.21 17.21 0 0 0 548 159.68945 A 20.51 20.51 0 0 0 549.75 168.61914 A 15.48 15.48 0 0 0 554.61914 174.5 A 20.41 20.41 0 0 0 562.14062 177.7793 A 43.16 43.16 0 0 0 571.85938 178.7793 A 97.76 97.76 0 0 0 586.2793 177.7793 C 590.5293 177.1393 593.72008 176.59062 595.83008 176.14062 L 595.83008 140.28906 A 35.89 35.89 0 0 0 594.64062 130.74023 A 17.9 17.9 0 0 0 590.64062 123.33008 A 18.33 18.33 0 0 0 583.23047 118.58008 A 33.5 33.5 0 0 0 572.7832 116.87891 z M 641.69141 117.10742 A 62 62 0 0 0 629.19922 118.41016 A 75.78 75.78 0 0 0 619.30078 121.17969 L 619.30078 177.49023 L 632.98047 177.49023 L 632.98047 130.11914 A 29.66 29.66 0 0 1 636.53906 129.32031 A 27.71 27.71 0 0 1 641.34961 128.86914 A 34.75 34.75 0 0 1 648.30078 129.49023 A 44.09 44.09 0 0 1 653 130.67969 L 655.36914 119.15039 C 654.65914 118.92039 653.79016 118.67016 652.66016 118.41016 C 651.53016 118.15016 650.35039 117.91047 649.15039 117.73047 C 647.95039 117.55047 646.6893 117.3893 645.5293 117.2793 C 644.3693 117.1693 643.26914 117.10938 642.36914 117.10938 A 62 62 0 0 0 641.69141 117.10742 z M 707.83984 118.34961 C 706.11984 125.44294 704.20628 132.77628 702.09961 140.34961 C 699.99294 147.92294 697.73984 155.06596 695.33984 161.7793 C 693.89984 158.5393 692.4693 155.02977 691.0293 151.25977 C 689.5893 147.48977 688.21945 143.71039 686.93945 139.90039 C 685.65945 136.09039 684.45914 132.34039 683.36914 128.65039 C 682.26914 124.95039 681.34318 121.51937 680.58984 118.35938 L 666 118.35938 A 296.18 296.18 0 0 0 676.65039 149.5293 C 680.63039 159.3293 684.77341 168.37659 689.08008 176.66992 A 20.65 20.65 0 0 1 683.80078 184.5293 C 681.79411 186.2293 679.00922 187.08008 675.44922 187.08008 A 22.1 22.1 0 0 1 667.39062 185.49023 L 664.90039 196.49023 A 20.86 20.86 0 0 0 669.59961 197.96094 A 31.36 31.36 0 0 0 684.25977 197.56055 A 18.86 18.86 0 0 0 690.82031 194.11914 A 25.8 25.8 0 0 0 696.14062 188.11914 A 60.8 60.8 0 0 0 700.7793 179.41992 A 430.74 430.74 0 0 0 722 118.35938 L 707.83984 118.34961 z M 219.14062 118.35938 L 219.14062 177.49023 L 232.82031 177.49023 L 232.82031 118.35938 L 219.14062 118.35938 z M 281.03516 128.30664 A 12.22 12.22 0 0 1 281.33008 128.31055 A 12 12 0 0 1 286.58008 129.38086 A 11 11 0 0 1 290.31055 132.32031 A 12.81 12.81 0 0 1 292.63086 136.73047 A 17.94 17.94 0 0 1 293.41992 142.09961 L 268 142.09961 A 23.81 23.81 0 0 1 269.25 137.00977 A 14.4 14.4 0 0 1 271.78906 132.59961 A 12.69 12.69 0 0 1 275.78906 129.49023 A 12.22 12.22 0 0 1 281.03516 128.30664 z M 504.80469 128.30664 A 12.29 12.29 0 0 1 505.09961 128.31055 A 12 12 0 0 1 510.34961 129.38086 A 11.11 11.11 0 0 1 514.08984 132.32031 A 13 13 0 0 1 516.40039 136.73047 A 17.94 17.94 0 0 1 517.19922 142.09961 L 491.75 142.08984 A 23.81 23.81 0 0 1 493 137 A 14.4 14.4 0 0 1 495.55078 132.59961 A 12.76 12.76 0 0 1 499.55078 129.49023 A 12.29 12.29 0 0 1 504.80469 128.30664 z M 95.779297 128.86914 A 18.66 18.66 0 0 1 102.16016 129.94922 A 21.41 21.41 0 0 1 106.9707 132.25977 L 106.9707 166.18945 C 105.9907 166.40945 104.71969 166.62055 103.17969 166.81055 A 47 47 0 0 1 97.580078 167.08984 C 92.533411 167.12318 88.577604 165.40922 85.710938 161.94922 C 82.844271 158.48922 81.410156 153.75977 81.410156 147.75977 C 81.410156 141.9531 82.559375 137.35427 84.859375 133.96094 C 87.159375 130.5676 90.799297 128.86914 95.779297 128.86914 z M 169.94922 128.86914 A 18.72 18.72 0 0 1 176.33984 129.94922 A 21.1 21.1 0 0 1 181.14062 132.25977 L 181.14062 166.18945 C 180.16063 166.40945 178.89937 166.62055 177.35938 166.81055 A 47 47 0 0 1 171.75977 167.08984 C 166.7131 167.12318 162.75729 165.40922 159.89062 161.94922 C 157.02396 158.48922 155.58984 153.75977 155.58984 147.75977 C 155.59651 141.9531 156.74573 137.35427 159.03906 133.96094 C 161.3324 130.5676 164.96922 128.86914 169.94922 128.86914 z M 574.51953 151.03906 A 31.34 31.34 0 0 1 579.26953 151.36914 A 28.54 28.54 0 0 1 582.55078 152.05078 L 582.55078 167.21094 A 50.19 50.19 0 0 1 572.93945 167.89062 L 572.93945 167.88086 A 15.75 15.75 0 0 1 564.68945 166.01953 C 562.64945 164.77286 561.63086 162.52906 561.63086 159.28906 A 7.15 7.15 0 0 1 562.75977 155.16016 A 7.66 7.66 0 0 1 565.75977 152.61914 A 14.47 14.47 0 0 1 569.93945 151.36914 A 32.6 32.6 0 0 1 574.51953 151.03906 z "
     style="fill:#2b0000"
     id="path850" />
</svg>
