<?xml version="1.0" encoding="UTF-8" standalone="no"?>
<svg
   xmlns:dc="http://purl.org/dc/elements/1.1/"
   xmlns:cc="http://creativecommons.org/ns#"
   xmlns:rdf="http://www.w3.org/1999/02/22-rdf-syntax-ns#"
   xmlns:svg="http://www.w3.org/2000/svg"
   xmlns="http://www.w3.org/2000/svg"
   xmlns:sodipodi="http://sodipodi.sourceforge.net/DTD/sodipodi-0.dtd"
   xmlns:inkscape="http://www.inkscape.org/namespaces/inkscape"
   inkscape:version="1.0 (4035a4fb49, 2020-05-01)"
   sodipodi:docname="money.svg"
   xml:space="preserve"
   width="30"
   viewBox="0 0 30 24.000069"
   version="1.1"
   id="Layer_1"
   height="24.000069"
   enable-background="new 0 0 32 32"><metadata
     id="metadata83"><rdf:RDF><cc:Work
         rdf:about=""><dc:format>image/svg+xml</dc:format><dc:type
           rdf:resource="http://purl.org/dc/dcmitype/StillImage" /></cc:Work></rdf:RDF></metadata><defs
     id="defs81" /><sodipodi:namedview
     inkscape:current-layer="dollar_x2C__currency_x2C__money"
     inkscape:cy="12.000069"
     inkscape:cx="15"
     inkscape:zoom="31.5"
     showgrid="false"
     id="namedview79"
     inkscape:window-height="480"
     inkscape:window-width="640"
     inkscape:pageshadow="2"
     inkscape:pageopacity="0"
     guidetolerance="10"
     gridtolerance="10"
     objecttolerance="10"
     borderopacity="1"
     bordercolor="#666666"
     pagecolor="#ffffff" /><g
     transform="translate(-1,-3.9999311)"
     style="fill:#ffff00"
     id="dollar_x2C__currency_x2C__money"><g
       style="fill:#ffd700;fill-opacity:1"
       id="purse_1_"><g
         style="fill:#ffd700;fill-opacity:1"
         id="g6"><g
           style="fill:#ffd700;fill-opacity:1"
           id="g4"><path
             style="fill:#ffd700;fill-opacity:1"
             id="path2"
             fill="#263238"
             d="M 1.5,9 C 1.224,9 1,8.776 1,8.5 1,8.224 1.224,8 1.5,8 15.884,8 24.566,8 27.084,4.223 27.207,4.039 27.435,3.957 27.645,4.022 27.855,4.085 28,4.279 28,4.5 V 7 C 28,7.276 27.776,7.5 27.5,7.5 27.224,7.5 27,7.276 27,7 V 5.826 C 23.441,9 14.882,9 1.5,9 Z" /></g></g><g
         style="fill:#ffd700;fill-opacity:1"
         id="g14"><g
           style="fill:#ffd700;fill-opacity:1"
           id="g12"><g
             style="fill:#ffd700;fill-opacity:1"
             id="g10"><path
               style="fill:#ffd700;fill-opacity:1"
               id="path8"
               fill="#263238"
               d="m 13.979,11.058 c -1.78,0 -3.686,-0.014 -5.713,-0.027 C 6.113,11.016 3.851,11 1.5,11 1.224,11 1,10.776 1,10.5 1,10.224 1.224,10 1.5,10 3.854,10 6.118,10.016 8.272,10.03 18.864,10.099 27.229,10.16 29.137,8.155 29.279,8.007 29.496,7.96 29.685,8.036 29.875,8.111 30,8.296 30,8.5 v 2 C 30,10.776 29.776,11 29.5,11 29.224,11 29,10.776 29,10.5 V 9.492 c -2.408,1.338 -7.611,1.566 -15.021,1.566 z" /></g></g></g><g
         style="fill:#ffd700;fill-opacity:1"
         id="g46"><g
           style="fill:#ffd700;fill-opacity:1"
           id="g24"><g
             style="fill:#ffd700;fill-opacity:1"
             id="g22"><g
               style="fill:#ffd700;fill-opacity:1"
               id="g20"><g
                 style="fill:#ffd700;fill-opacity:1"
                 id="g18"><path
                   style="fill:#ffd700;fill-opacity:1"
                   id="path16"
                   fill="#263238"
                   d="m 16,24 c 1.402,0 2.5,-1.098 2.5,-2.5 0,-1.135 -0.771,-1.962 -2.291,-2.458 L 16.096,19.005 C 15.526,18.819 15,18.569 15,18 c 0,-0.589 0.411,-1 1,-1 0.704,0 1.174,0.378 1.178,0.382 0.213,0.178 0.527,0.15 0.705,-0.06 0.178,-0.212 0.15,-0.526 -0.061,-0.704 C 17.792,16.593 17.076,16 16,16 c -1.141,0 -2,0.86 -2,2 0,1.374 1.344,1.813 1.785,1.955 l 0.113,0.037 c 1.078,0.352 1.602,0.846 1.602,1.508 0,0.855 -0.645,1.5 -1.5,1.5 -0.928,0 -1.459,-0.612 -1.6,-0.8 -0.166,-0.222 -0.48,-0.265 -0.7,-0.101 -0.222,0.166 -0.267,0.479 -0.101,0.7 C 13.811,23.082 14.608,24 16,24 Z" /></g></g></g></g><g
           style="fill:#ffd700;fill-opacity:1"
           id="g34"><g
             style="fill:#ffd700;fill-opacity:1"
             id="g32"><g
               style="fill:#ffd700;fill-opacity:1"
               id="g30"><g
                 style="fill:#ffd700;fill-opacity:1"
                 id="g28"><path
                   style="fill:#ffd700;fill-opacity:1"
                   id="path26"
                   fill="#263238"
                   d="m 16,25 c 0.276,0 0.5,-0.224 0.5,-0.5 V 24 c 0,-0.276 -0.224,-0.5 -0.5,-0.5 -0.276,0 -0.5,0.224 -0.5,0.5 v 0.5 c 0,0.276 0.224,0.5 0.5,0.5 z" /></g></g></g></g><g
           style="fill:#ffd700;fill-opacity:1"
           id="g44"><g
             style="fill:#ffd700;fill-opacity:1"
             id="g42"><g
               style="fill:#ffd700;fill-opacity:1"
               id="g40"><g
                 style="fill:#ffd700;fill-opacity:1"
                 id="g38"><path
                   style="fill:#ffd700;fill-opacity:1"
                   id="path36"
                   fill="#263238"
                   d="m 16,16.5 c 0.276,0 0.5,-0.224 0.5,-0.5 V 15.5 C 16.5,15.224 16.276,15 16,15 c -0.276,0 -0.5,0.224 -0.5,0.5 V 16 c 0,0.276 0.224,0.5 0.5,0.5 z" /></g></g></g></g></g></g><g
       style="fill:#ffd700;fill-opacity:1"
       id="g61"><g
         style="fill:#ffd700;fill-opacity:1"
         id="g53"><g
           style="fill:#ffd700;fill-opacity:1"
           id="g51"><path
             style="fill:#ffd700;fill-opacity:1"
             id="path49"
             fill="#263238"
             d="M 1.5,12 C 1.224,12 1,12.224 1,12.5 1,12.776 1.224,13 1.5,13 H 30 V 27 H 1.5 C 1.224,27 1,27.224 1,27.5 v 0 C 1,27.776 1.224,28 1.5,28 h 29 c 0.276,0 0.5,-0.224 0.5,-0.5 v -15 C 31,12.224 30.776,12 30.5,12 Z" /></g></g><g
         style="fill:#ffd700;fill-opacity:1"
         id="g59"><g
           style="fill:#ffd700;fill-opacity:1"
           id="g57"><path
             style="fill:#ffd700;fill-opacity:1"
             id="path55"
             fill="#263238"
             d="M 1,14.499 V 27.5 C 1,27.776 1.224,28 1.5,28 v 0 C 1.776,28 2,27.776 2,27.5 V 14.499 c 0,-0.276 -0.224,-0.5 -0.5,-0.5 -0.276,0 -0.5,0.224 -0.5,0.5 z" /></g></g></g><g
       style="fill:#ffd700;fill-opacity:1"
       id="g75"><g
         style="fill:#ffd700;fill-opacity:1"
         id="g67"><g
           style="fill:#ffd700;fill-opacity:1"
           id="g65"><path
             style="fill:#ffd700;fill-opacity:1"
             id="path63"
             fill="#263238"
             d="M 12.5,26 H 5.449 C 5.205,26 4.997,25.823 4.956,25.583 4.808,24.697 4.185,23.958 3.332,23.654 3.133,23.584 3,23.396 3,23.184 V 16.817 C 3,16.605 3.133,16.417 3.332,16.346 4.186,16.042 4.808,15.303 4.956,14.417 4.996,14.177 5.205,14 5.449,14 H 12.5 c 0.276,0 0.5,0.224 0.5,0.5 0,0.276 -0.224,0.5 -0.5,0.5 H 5.846 C 5.564,15.941 4.894,16.725 4,17.149 V 22.85 C 4.893,23.275 5.564,24.059 5.846,25 H 12.5 c 0.276,0 0.5,0.224 0.5,0.5 0,0.276 -0.224,0.5 -0.5,0.5 z" /></g></g><g
         style="fill:#ffd700;fill-opacity:1"
         id="g73"><g
           style="fill:#ffd700;fill-opacity:1"
           id="g71"><path
             style="fill:#ffd700;fill-opacity:1"
             id="path69"
             fill="#263238"
             d="m 19.5,26 h 7.051 c 0.244,0 0.452,-0.177 0.493,-0.417 0.148,-0.886 0.771,-1.625 1.624,-1.929 C 28.867,23.584 29,23.396 29,23.184 v -6.367 c 0,-0.212 -0.133,-0.4 -0.332,-0.471 C 27.814,16.042 27.192,15.303 27.044,14.417 27.004,14.177 26.795,14 26.551,14 H 19.5 c -0.276,0 -0.5,0.224 -0.5,0.5 0,0.276 0.224,0.5 0.5,0.5 h 6.654 c 0.281,0.941 0.952,1.725 1.846,2.149 v 5.701 c -0.893,0.425 -1.564,1.208 -1.846,2.149 H 19.5 c -0.276,0 -0.5,0.224 -0.5,0.5 0,0.276 0.224,0.501 0.5,0.501 z" /></g></g></g></g></svg>
