<?xml version="1.0" encoding="UTF-8" standalone="no"?>
<svg
   xmlns:dc="http://purl.org/dc/elements/1.1/"
   xmlns:cc="http://creativecommons.org/ns#"
   xmlns:rdf="http://www.w3.org/1999/02/22-rdf-syntax-ns#"
   xmlns:svg="http://www.w3.org/2000/svg"
   xmlns="http://www.w3.org/2000/svg"
   xmlns:sodipodi="http://sodipodi.sourceforge.net/DTD/sodipodi-0.dtd"
   xmlns:inkscape="http://www.inkscape.org/namespaces/inkscape"
   inkscape:version="1.0 (4035a4fb49, 2020-05-01)"
   sodipodi:docname="pencil.svg"
   id="svg15"
   viewBox="0 0 691.20001 691.20001"
   height="691.20001"
   width="691.20001"
   version="1.1">
  <metadata
     id="metadata21">
    <rdf:RDF>
      <cc:Work
         rdf:about="">
        <dc:format>image/svg+xml</dc:format>
        <dc:type
           rdf:resource="http://purl.org/dc/dcmitype/StillImage" />
      </cc:Work>
    </rdf:RDF>
  </metadata>
  <defs
     id="defs19" />
  <sodipodi:namedview
     inkscape:current-layer="svg15"
     inkscape:cy="339.2"
     inkscape:cx="339.2"
     inkscape:zoom="0.984375"
     showgrid="false"
     id="namedview17"
     inkscape:window-height="480"
     inkscape:window-width="640"
     inkscape:pageshadow="2"
     inkscape:pageopacity="0"
     guidetolerance="10"
     gridtolerance="10"
     objecttolerance="10"
     borderopacity="1"
     bordercolor="#666666"
     pagecolor="#ffffff" />
  <title
     id="title2" />
  <g
     transform="translate(-172.8,-172.8)"
     id="icomoon-ignore" />
  <path
     id="path5"
     d="M 0,691.2 59.2,452.8 422.4,89.6 601.6,268.8 238.4,632 Z M 100.8,475.2 62.4,628.8 216,590.4 539.2,267.2 424,152 Z"
     fill="#ffd700" />
  <path
     id="path7"
     d="M 200,617.6 C 184,555.2 136,507.2 73.6,491.2 l 11.2,-44.8 c 78.4,19.2 139.2,80 158.4,158.4 z"
     fill="#ffd700" />
  <path
     id="path9"
     d="m 195.2,529.6 -32,-33.6 318.4,-318.4 32,32 z"
     fill="#ffd700" />
  <path
     id="path11"
     d="m 32,659.2 70.4,-17.6 C 96,616 75.2,595.2 49.6,588.8 Z"
     fill="#ffd700" />
  <path
     id="path13"
     d="M 619.2,251.2 440,72 512,0 523.2,1.6 c 86.4,11.2 155.2,80 166.4,166.4 l 1.6,11.2 z M 505.6,72 620.8,187.2 643.2,164.8 C 630.4,107.2 585.6,62.4 528,49.6 Z"
     fill="#ffd700" />
</svg>
