<?xml version="1.0" encoding="UTF-8" standalone="no"?>
<svg
   xmlns:dc="http://purl.org/dc/elements/1.1/"
   xmlns:cc="http://creativecommons.org/ns#"
   xmlns:rdf="http://www.w3.org/1999/02/22-rdf-syntax-ns#"
   xmlns:svg="http://www.w3.org/2000/svg"
   xmlns="http://www.w3.org/2000/svg"
   xmlns:sodipodi="http://sodipodi.sourceforge.net/DTD/sodipodi-0.dtd"
   xmlns:inkscape="http://www.inkscape.org/namespaces/inkscape"
   inkscape:version="1.0 (4035a4fb49, 2020-05-01)"
   sodipodi:docname="search.svg"
   id="svg9"
   viewBox="0 0 761.59998 763.20001"
   height="763.20001"
   width="761.59998"
   version="1.1">
  <metadata
     id="metadata15">
    <rdf:RDF>
      <cc:Work
         rdf:about="">
        <dc:format>image/svg+xml</dc:format>
        <dc:type
           rdf:resource="http://purl.org/dc/dcmitype/StillImage" />
      </cc:Work>
    </rdf:RDF>
  </metadata>
  <defs
     id="defs13" />
  <sodipodi:namedview
     inkscape:current-layer="svg9"
     inkscape:cy="382.4"
     inkscape:cx="380.8"
     inkscape:zoom="0.984375"
     showgrid="false"
     id="namedview11"
     inkscape:window-height="480"
     inkscape:window-width="640"
     inkscape:pageshadow="2"
     inkscape:pageopacity="0"
     guidetolerance="10"
     gridtolerance="10"
     objecttolerance="10"
     borderopacity="1"
     bordercolor="#666666"
     pagecolor="#ffffff" />
  <title
     id="title2" />
  <g
     transform="translate(-131.2,-129.6)"
     id="icomoon-ignore" />
  <path
     id="path5"
     d="M 312,624 C 140.8,624 0,484.8 0,312 0,140.8 139.2,0 312,0 484.8,0 624,139.2 624,312 622.4,484.8 483.2,624 312,624 Z m 0,-577.6 c -147.2,0 -267.2,120 -267.2,267.2 0,147.2 120,267.2 267.2,267.2 147.2,0 267.2,-120 267.2,-267.2 C 577.6,166.4 457.6,46.4 312,46.4 Z"
     fill="#ffd700" />
  <path
     id="path7"
     d="m 728,763.2 -217.6,-216 35.2,-35.2 216,217.6 z"
     fill="#ffd700" />
</svg>
